<?xml version="1.0" encoding="utf-8"?>
<!-- Generator: Adobe Illustrator 26.5.0, SVG Export Plug-In . SVG Version: 6.00 Build 0)  -->
<svg version="1.1" id="Layer_1" xmlns="http://www.w3.org/2000/svg" xmlns:xlink="http://www.w3.org/1999/xlink" x="0px" y="0px"
	 viewBox="0 0 369.1 314.1" style="enable-background:new 0 0 369.1 314.1;" xml:space="preserve">
<style type="text/css">
	.st0{fill:#FFFFFF;}
	.st1{fill:#FC1921;}
</style>
<g>
	<g>
		<polygon class="st0" points="37.7,0 37.7,276.4 331.4,264.1 331.4,0 		"/>
	</g>
	<g>
		<g>
			<path class="st1" d="M158.3,182.3c-7.6,2.4-15.4,3.6-22.3,3.6c-26.3,0-45-16-45-48.3c0-27.2,15.3-47,44.9-47
				c11.8,0,19.7,3.3,21.9,4.2l-1.3,20.3c-2.8-1.7-10-5.3-17.6-5.3c-15.5,0-22.8,10.3-22.8,28.3c0,15.9,8.5,28,23.8,28
				c8.7,0,15-3.6,17.3-5.2L158.3,182.3z"/>
			<path class="st1" d="M164.5,162.1c3,1.7,11.8,5.6,20.4,5.6c9.2,0,12.4-4.1,12.4-9.9c0-6.1-4-7.8-11-10.6l-5.3-2.1
				c-14.9-5.9-19.4-14.1-19.4-27.2c0-17.4,13.7-27.3,32.9-27.3c6.9,0,15.4,0.7,22.8,3.7l-1,18.1c-4.3-2.2-11.6-4.6-18.6-4.6
				c-7.2,0-11.6,3-11.6,8.7c0,4.8,2.3,6.9,10.3,10.6l10.9,5c8.1,3.8,15.3,9.6,15.3,23.4c0,20.2-14.2,30.5-35.3,30.5
				c-10.9,0-19.5-2.4-24.1-3.6L164.5,162.1z"/>
		</g>
		<polygon class="st1" points="227.3,92.1 227.3,184.3 278.1,184.3 278.1,165.6 251.6,165.6 251.6,92.1 		"/>
	</g>
</g>
</svg>
